# Blender 3.5.1
# www.blender.org
mtllib april.mtl
o group_0
v -0.000160 0.040005 -0.039995
v -0.010160 -0.039995 -0.039995
v -0.010160 0.040005 -0.039995
v -0.000160 -0.039995 -0.039995
v -0.000160 -0.039995 -0.039995
v -0.000160 0.040005 -0.039995
v -0.010160 -0.039995 -0.039995
v -0.010160 0.040005 -0.039995
v -0.010160 -0.039995 -0.039995
v -0.010160 0.040005 -0.039995
v -0.000160 0.040005 -0.039995
v -0.000160 -0.039995 -0.039995
v -0.010160 0.040005 -0.039995
v -0.010160 -0.039995 0.040005
v -0.010160 0.040005 0.040005
v -0.010160 -0.039995 -0.039995
v -0.010160 -0.039995 -0.039995
v -0.010160 0.040005 -0.039995
v -0.010160 -0.039995 0.040005
v -0.010160 0.040005 0.040005
v -0.010160 0.040005 0.040005
v -0.010160 -0.039995 0.040005
v -0.000160 0.040005 -0.039995
v -0.010160 0.040005 0.040005
v -0.000160 0.040005 0.040005
v -0.010160 0.040005 -0.039995
v -0.010160 0.040005 -0.039995
v -0.000160 0.040005 -0.039995
v -0.010160 0.040005 0.040005
v -0.000160 0.040005 0.040005
v -0.000160 0.040005 0.040005
v -0.000160 0.040005 0.040005
v -0.000160 0.030005 0.030005
v -0.000160 0.040005 -0.039995
v -0.000160 -0.039995 0.040005
v -0.000160 -0.029995 0.030005
v -0.000160 -0.029995 -0.029995
v -0.000160 0.030005 -0.029995
v -0.000160 -0.039995 -0.039995
v -0.000160 -0.039995 0.040005
v -0.000160 -0.029995 -0.029995
v -0.000160 -0.039995 -0.039995
v -0.000160 0.030005 -0.029995
v -0.000160 0.030005 0.030005
v -0.000160 0.040005 -0.039995
v -0.000160 -0.029995 0.030005
v -0.000160 0.040005 0.040005
v -0.000160 -0.039995 0.040005
v -0.000160 -0.029995 0.030005
v -0.000160 -0.029995 -0.029995
v -0.000160 0.030005 0.030005
v -0.000160 0.030005 -0.029995
v -0.010160 -0.039995 -0.039995
v -0.000160 -0.039995 0.040005
v -0.010160 -0.039995 0.040005
v -0.000160 -0.039995 -0.039995
v -0.000160 -0.039995 -0.039995
v -0.010160 -0.039995 -0.039995
v -0.000160 -0.039995 0.040005
v -0.010160 -0.039995 0.040005
v -0.000160 -0.039995 0.040005
v -0.010160 0.040005 0.040005
v -0.010160 -0.039995 0.040005
v -0.000160 0.040005 0.040005
v -0.000160 0.040005 0.040005
v -0.000160 -0.039995 0.040005
v -0.010160 0.040005 0.040005
v -0.010160 -0.039995 0.040005
vn -0.0000 -0.0000 -1.0000
vn -0.0000 -0.0000 1.0000
vn -1.0000 -0.0000 -0.0000
vn 1.0000 -0.0000 -0.0000
vn -0.0000 1.0000 -0.0000
vn -0.0000 -1.0000 -0.0000
s 0
usemtl White
f 1//1 2//1 3//1
f 2//1 1//1 4//1
f 5//2 6//2 7//2
f 8//2 7//2 6//2
f 13//3 14//3 15//3
f 14//3 13//3 16//3
f 17//4 18//4 19//4
f 20//4 19//4 18//4
f 23//5 24//5 25//5
f 24//5 23//5 26//5
f 27//6 28//6 29//6
f 30//6 29//6 28//6
f 32//4 33//4 34//4
f 33//4 32//4 35//4
f 33//4 35//4 36//4
f 36//4 35//4 37//4
f 34//4 38//4 39//4
f 38//4 34//4 33//4
f 39//4 38//4 37//4
f 39//4 37//4 35//4
f 40//3 41//3 42//3
f 41//3 43//3 42//3
f 44//3 45//3 43//3
f 42//3 43//3 45//3
f 41//3 40//3 46//3
f 46//3 40//3 44//3
f 40//3 47//3 44//3
f 45//3 44//3 47//3
f 53//6 54//6 55//6
f 54//6 53//6 56//6
f 57//5 58//5 59//5
f 60//5 59//5 58//5
f 61//2 62//2 63//2
f 62//2 61//2 64//2
f 65//1 66//1 67//1
f 68//1 67//1 66//1
o image_0
v -0.000160 0.030005 -0.029995
v -0.000160 0.030005 0.030005
v -0.000160 -0.029995 -0.029995
v -0.000160 -0.029995 0.030005
v -0.000160 -0.029995 -0.029995
v -0.000160 0.030005 0.030005
v -0.000160 0.030005 -0.029995
v -0.000160 -0.029995 0.030005
vn 1.0000 -0.0000 -0.0000
vn -1.0000 -0.0000 -0.0000
vt 0.000000 1.000000
vt 0.000000 0.000000
vt 1.000000 1.000000
vt 1.000000 0.000000
vt 1.000000 1.000000
vt 0.000000 0.000000
vt 0.000000 1.000000
vt 1.000000 0.000000
s 0
usemtl material
f 69/1/7 70/2/7 71/3/7
f 72/4/7 71/3/7 70/2/7
f 73/5/8 74/6/8 75/7/8
f 74/6/8 73/5/8 76/8/8
